<svg id="visual" viewBox="0 0 900 600" width="900" height="600" xmlns="http://www.w3.org/2000/svg" xmlns:xlink="http://www.w3.org/1999/xlink" version="1.1"><path d="M0 507L21.5 493.7C43 480.3 86 453.7 128.8 457.5C171.7 461.3 214.3 495.7 257.2 508.2C300 520.7 343 511.3 385.8 495.5C428.7 479.7 471.3 457.3 514.2 463.2C557 469 600 503 642.8 515.7C685.7 528.3 728.3 519.7 771.2 518.3C814 517 857 523 878.5 526L900 529L900 601L878.5 601C857 601 814 601 771.2 601C728.3 601 685.7 601 642.8 601C600 601 557 601 514.2 601C471.3 601 428.7 601 385.8 601C343 601 300 601 257.2 601C214.3 601 171.7 601 128.8 601C86 601 43 601 21.5 601L0 601Z" fill="#2178fa" stroke-linecap="round" stroke-linejoin="miter"></path></svg>