<svg id="visual" viewBox="0 0 900 600" width="900" height="600" xmlns="http://www.w3.org/2000/svg" xmlns:xlink="http://www.w3.org/1999/xlink" version="1.1"><path d="M0 405L21.5 401.2C43 397.3 86 389.7 128.8 405.7C171.7 421.7 214.3 461.3 257.2 468.3C300 475.3 343 449.7 385.8 453C428.7 456.3 471.3 488.7 514.2 494.3C557 500 600 479 642.8 467.5C685.7 456 728.3 454 771.2 461.8C814 469.7 857 487.3 878.5 496.2L900 505L900 601L878.5 601C857 601 814 601 771.2 601C728.3 601 685.7 601 642.8 601C600 601 557 601 514.2 601C471.3 601 428.7 601 385.8 601C343 601 300 601 257.2 601C214.3 601 171.7 601 128.8 601C86 601 43 601 21.5 601L0 601Z" fill="#0066FF" stroke-linecap="round" stroke-linejoin="miter"></path></svg>