<svg id="visual" viewBox="0 0 900 600" width="900" height="600" xmlns="http://www.w3.org/2000/svg" xmlns:xlink="http://www.w3.org/1999/xlink" version="1.1"><path d="M0 482L21.5 479.8C43 477.7 86 473.3 128.8 483C171.7 492.7 214.3 516.3 257.2 520.5C300 524.7 343 509.3 385.8 511.3C428.7 513.3 471.3 532.7 514.2 536C557 539.3 600 526.7 642.8 519.8C685.7 513 728.3 512 771.2 516.8C814 521.7 857 532.3 878.5 537.7L900 543L900 601L878.5 601C857 601 814 601 771.2 601C728.3 601 685.7 601 642.8 601C600 601 557 601 514.2 601C471.3 601 428.7 601 385.8 601C343 601 300 601 257.2 601C214.3 601 171.7 601 128.8 601C86 601 43 601 21.5 601L0 601Z" fill="#0066FF" stroke-linecap="round" stroke-linejoin="miter"></path></svg>